<svg width="370" height="24" viewBox="0 0 370 24" fill="none" xmlns="http://www.w3.org/2000/svg">
<g clip-path="url(#clip0_0_206)">
<rect width="370" height="2" fill="#F0F0F0"/>
<rect width="333" height="2" fill="#1D1D1D"/>
<path d="M331.699 13.499C331.699 16.5713 330.51 18.1074 328.132 18.1074C327.717 18.1074 327.388 18.0716 327.144 18V17.2319C327.431 17.325 327.756 17.3716 328.122 17.3716C328.981 17.3716 329.629 17.1066 330.066 16.5767C330.506 16.0431 330.746 15.2267 330.786 14.1274H330.721C330.524 14.4246 330.263 14.652 329.937 14.8096C329.611 14.9635 329.244 15.0405 328.836 15.0405C328.141 15.0405 327.59 14.8328 327.182 14.4175C326.773 14.0021 326.569 13.422 326.569 12.6772C326.569 11.8608 326.797 11.2163 327.251 10.7437C327.71 10.271 328.311 10.0347 329.056 10.0347C329.59 10.0347 330.055 10.1725 330.453 10.4482C330.854 10.7204 331.162 11.1196 331.376 11.646C331.591 12.1688 331.699 12.7865 331.699 13.499ZM329.056 10.7974C328.544 10.7974 328.148 10.9621 327.869 11.2915C327.59 11.6209 327.45 12.0793 327.45 12.6665C327.45 13.1821 327.579 13.5885 327.837 13.8857C328.095 14.1794 328.487 14.3262 329.013 14.3262C329.339 14.3262 329.638 14.2599 329.91 14.1274C330.186 13.995 330.403 13.8141 330.56 13.585C330.718 13.3558 330.796 13.1159 330.796 12.8652C330.796 12.4893 330.723 12.1419 330.576 11.8232C330.429 11.5046 330.223 11.2539 329.958 11.0713C329.697 10.8887 329.396 10.7974 329.056 10.7974ZM339.037 14.063C339.037 15.4201 338.822 16.4334 338.392 17.103C337.966 17.7726 337.312 18.1074 336.432 18.1074C335.587 18.1074 334.944 17.7655 334.503 17.0815C334.063 16.394 333.843 15.3879 333.843 14.063C333.843 12.6951 334.056 11.68 334.482 11.0176C334.908 10.3551 335.558 10.0239 336.432 10.0239C337.284 10.0239 337.93 10.3695 338.371 11.0605C338.815 11.7516 339.037 12.7524 339.037 14.063ZM334.745 14.063C334.745 15.2052 334.879 16.0378 335.148 16.5605C335.417 17.0798 335.844 17.3394 336.432 17.3394C337.026 17.3394 337.456 17.0762 337.721 16.5498C337.989 16.0199 338.124 15.1909 338.124 14.063C338.124 12.9351 337.989 12.1097 337.721 11.5869C337.456 11.0605 337.026 10.7974 336.432 10.7974C335.844 10.7974 335.417 11.057 335.148 11.5762C334.879 12.0918 334.745 12.9207 334.745 14.063ZM341.89 12.4893C341.89 13.098 341.956 13.5545 342.088 13.8589C342.221 14.1632 342.436 14.3154 342.733 14.3154C343.32 14.3154 343.614 13.7067 343.614 12.4893C343.614 11.279 343.32 10.6738 342.733 10.6738C342.436 10.6738 342.221 10.8242 342.088 11.125C341.956 11.4258 341.89 11.8805 341.89 12.4893ZM344.35 12.4893C344.35 13.3057 344.212 13.9233 343.936 14.3423C343.664 14.7576 343.263 14.9653 342.733 14.9653C342.232 14.9653 341.841 14.7523 341.562 14.3262C341.286 13.9001 341.148 13.2878 341.148 12.4893C341.148 11.6764 341.281 11.0641 341.546 10.6523C341.814 10.2406 342.21 10.0347 342.733 10.0347C343.252 10.0347 343.651 10.2477 343.931 10.6738C344.21 11.0999 344.35 11.7051 344.35 12.4893ZM346.616 15.6367C346.616 16.249 346.682 16.7074 346.815 17.0117C346.947 17.3125 347.164 17.4629 347.465 17.4629C347.766 17.4629 347.988 17.3143 348.131 17.0171C348.274 16.7163 348.346 16.2562 348.346 15.6367C348.346 15.0244 348.274 14.5715 348.131 14.2778C347.988 13.9806 347.766 13.832 347.465 13.832C347.164 13.832 346.947 13.9806 346.815 14.2778C346.682 14.5715 346.616 15.0244 346.616 15.6367ZM349.082 15.6367C349.082 16.4495 348.944 17.0654 348.668 17.4844C348.396 17.8997 347.995 18.1074 347.465 18.1074C346.956 18.1074 346.564 17.8944 346.289 17.4683C346.016 17.0422 345.88 16.4316 345.88 15.6367C345.88 14.8239 346.013 14.2116 346.278 13.7998C346.546 13.388 346.942 13.1821 347.465 13.1821C347.973 13.1821 348.369 13.3934 348.652 13.8159C348.938 14.2349 349.082 14.8418 349.082 15.6367ZM347.696 10.1475L343.34 18H342.55L346.906 10.1475H347.696Z" fill="#1D1D1D"/>
<path d="M1.07959 10.1475H3.29785C4.33984 10.1475 5.09359 10.3032 5.55908 10.6147C6.02458 10.9263 6.25732 11.4186 6.25732 12.0918C6.25732 12.5573 6.12663 12.9422 5.86523 13.2466C5.60742 13.5474 5.22965 13.7425 4.73193 13.832V13.8857C5.92432 14.0898 6.52051 14.7165 6.52051 15.7656C6.52051 16.4674 6.28239 17.0153 5.80615 17.4092C5.3335 17.8031 4.67106 18 3.81885 18H1.07959V10.1475ZM1.99268 13.5098H3.49658C4.14111 13.5098 4.60482 13.4095 4.8877 13.209C5.17057 13.0049 5.31201 12.6629 5.31201 12.1831C5.31201 11.7427 5.15446 11.4258 4.83936 11.2324C4.52425 11.0355 4.02295 10.937 3.33545 10.937H1.99268V13.5098ZM1.99268 14.2832V17.2212H3.63086C4.26465 17.2212 4.74089 17.0994 5.05957 16.856C5.38184 16.6089 5.54297 16.224 5.54297 15.7012C5.54297 15.2142 5.37826 14.8561 5.04883 14.627C4.72298 14.3978 4.22526 14.2832 3.55566 14.2832H1.99268ZM10.1255 14.7344V18H9.2124V10.1475H11.3662C12.3294 10.1475 13.0402 10.3319 13.4985 10.7007C13.9604 11.0695 14.1914 11.6245 14.1914 12.3657C14.1914 13.4041 13.665 14.106 12.6123 14.4712L14.7446 18H13.665L11.7637 14.7344H10.1255ZM10.1255 13.9502H11.377C12.0215 13.9502 12.4941 13.8231 12.7949 13.5688C13.0957 13.311 13.2461 12.9261 13.2461 12.4141C13.2461 11.8949 13.0921 11.5207 12.7842 11.2915C12.4798 11.0623 11.9893 10.9478 11.3125 10.9478H10.1255V13.9502ZM21.9482 18L20.9707 15.5024H17.8232L16.8564 18H15.9326L19.0371 10.1152H19.8052L22.8936 18H21.9482ZM20.686 14.6807L19.7729 12.2476C19.6548 11.9396 19.533 11.5618 19.4077 11.1143C19.3289 11.458 19.2161 11.8358 19.0693 12.2476L18.1455 14.6807H20.686ZM31.1069 18H30.0649L25.7734 11.4097H25.7305C25.7878 12.1831 25.8164 12.8921 25.8164 13.5366V18H24.9731V10.1475H26.0044L30.2852 16.7109H30.3281C30.321 16.6143 30.3049 16.3045 30.2798 15.7817C30.2547 15.2554 30.2458 14.8794 30.2529 14.6538V10.1475H31.1069V18ZM40.5342 13.9985C40.5342 15.2948 40.1815 16.2866 39.4761 16.9741C38.7743 17.658 37.7627 18 36.4414 18H34.2661V10.1475H36.6724C37.8934 10.1475 38.8423 10.4858 39.519 11.1626C40.1958 11.8394 40.5342 12.7847 40.5342 13.9985ZM39.5674 14.0308C39.5674 13.0067 39.3096 12.235 38.7939 11.7158C38.2819 11.1966 37.5192 10.937 36.5059 10.937H35.1792V17.2104H36.291C37.3796 17.2104 38.1978 16.9437 38.7456 16.4102C39.2935 15.873 39.5674 15.0799 39.5674 14.0308ZM43.2905 18V10.1475H44.2036V18H43.2905ZM53.4966 18H52.4546L48.1631 11.4097H48.1201C48.1774 12.1831 48.2061 12.8921 48.2061 13.5366V18H47.3628V10.1475H48.394L52.6748 16.7109H52.7178C52.7106 16.6143 52.6945 16.3045 52.6694 15.7817C52.6444 15.2554 52.6354 14.8794 52.6426 14.6538V10.1475H53.4966V18ZM60.1094 13.8857H62.7788V17.7046C62.3634 17.8371 61.9409 17.9373 61.5112 18.0054C61.0815 18.0734 60.5838 18.1074 60.0181 18.1074C58.8293 18.1074 57.9036 17.7547 57.2412 17.0493C56.5788 16.3403 56.2476 15.3485 56.2476 14.0737C56.2476 13.2573 56.4105 12.543 56.7363 11.9307C57.0658 11.3148 57.5384 10.8457 58.1543 10.5234C58.7702 10.1976 59.4917 10.0347 60.3188 10.0347C61.1567 10.0347 61.9373 10.1886 62.6606 10.4966L62.3062 11.3022C61.5972 11.0015 60.915 10.8511 60.2598 10.8511C59.3037 10.8511 58.5571 11.1357 58.02 11.7051C57.4829 12.2744 57.2144 13.064 57.2144 14.0737C57.2144 15.1336 57.4722 15.9375 57.9878 16.4854C58.507 17.0332 59.2679 17.3071 60.2705 17.3071C60.8148 17.3071 61.3465 17.2445 61.8657 17.1191V14.7021H60.1094V13.8857Z" fill="#1D1D1D"/>
</g>
<defs>
<clipPath id="clip0_0_206">
<rect width="370" height="24" fill="white"/>
</clipPath>
</defs>
</svg>
