<svg width="370" height="24" viewBox="0 0 370 24" fill="none" xmlns="http://www.w3.org/2000/svg">
<g clip-path="url(#clip0_0_211)">
<rect width="370" height="2" fill="#F0F0F0"/>
<rect width="296" height="2" fill="#1D1D1D"/>
<path d="M292.137 10.0347C292.853 10.0347 293.42 10.2012 293.839 10.5342C294.258 10.8672 294.468 11.3273 294.468 11.9146C294.468 12.3013 294.348 12.654 294.108 12.9727C293.868 13.2913 293.485 13.5814 292.958 13.8428C293.596 14.1471 294.049 14.4676 294.317 14.8042C294.586 15.1372 294.72 15.5239 294.72 15.9644C294.72 16.616 294.493 17.137 294.038 17.5273C293.583 17.9141 292.96 18.1074 292.169 18.1074C291.331 18.1074 290.687 17.9248 290.235 17.5596C289.784 17.1908 289.559 16.6698 289.559 15.9966C289.559 15.0978 290.106 14.3978 291.202 13.8965C290.708 13.6172 290.354 13.3164 290.139 12.9941C289.924 12.6683 289.816 12.3049 289.816 11.9038C289.816 11.3345 290.026 10.8815 290.445 10.5449C290.867 10.2048 291.431 10.0347 292.137 10.0347ZM290.439 16.0181C290.439 16.4478 290.588 16.7826 290.885 17.0225C291.186 17.2624 291.607 17.3823 292.147 17.3823C292.681 17.3823 293.096 17.257 293.394 17.0063C293.691 16.7557 293.839 16.4119 293.839 15.9751C293.839 15.6278 293.7 15.3198 293.42 15.0513C293.141 14.7791 292.654 14.516 291.959 14.2617C291.426 14.4909 291.039 14.7451 290.799 15.0244C290.559 15.3001 290.439 15.6313 290.439 16.0181ZM292.126 10.7598C291.678 10.7598 291.327 10.8672 291.073 11.082C290.819 11.2969 290.692 11.5833 290.692 11.9414C290.692 12.2708 290.798 12.5537 291.009 12.79C291.22 13.0264 291.61 13.2627 292.18 13.499C292.692 13.2842 293.053 13.0532 293.265 12.8062C293.479 12.5591 293.587 12.2708 293.587 11.9414C293.587 11.5798 293.456 11.2933 293.195 11.082C292.937 10.8672 292.581 10.7598 292.126 10.7598ZM302.037 14.063C302.037 15.4201 301.822 16.4334 301.392 17.103C300.966 17.7726 300.312 18.1074 299.432 18.1074C298.587 18.1074 297.944 17.7655 297.503 17.0815C297.063 16.394 296.843 15.3879 296.843 14.063C296.843 12.6951 297.056 11.68 297.482 11.0176C297.908 10.3551 298.558 10.0239 299.432 10.0239C300.284 10.0239 300.93 10.3695 301.371 11.0605C301.815 11.7516 302.037 12.7524 302.037 14.063ZM297.745 14.063C297.745 15.2052 297.879 16.0378 298.148 16.5605C298.417 17.0798 298.844 17.3394 299.432 17.3394C300.026 17.3394 300.456 17.0762 300.721 16.5498C300.989 16.0199 301.124 15.1909 301.124 14.063C301.124 12.9351 300.989 12.1097 300.721 11.5869C300.456 11.0605 300.026 10.7974 299.432 10.7974C298.844 10.7974 298.417 11.057 298.148 11.5762C297.879 12.0918 297.745 12.9207 297.745 14.063ZM304.89 12.4893C304.89 13.098 304.956 13.5545 305.088 13.8589C305.221 14.1632 305.436 14.3154 305.733 14.3154C306.32 14.3154 306.614 13.7067 306.614 12.4893C306.614 11.279 306.32 10.6738 305.733 10.6738C305.436 10.6738 305.221 10.8242 305.088 11.125C304.956 11.4258 304.89 11.8805 304.89 12.4893ZM307.35 12.4893C307.35 13.3057 307.212 13.9233 306.936 14.3423C306.664 14.7576 306.263 14.9653 305.733 14.9653C305.232 14.9653 304.841 14.7523 304.562 14.3262C304.286 13.9001 304.148 13.2878 304.148 12.4893C304.148 11.6764 304.281 11.0641 304.546 10.6523C304.814 10.2406 305.21 10.0347 305.733 10.0347C306.252 10.0347 306.651 10.2477 306.931 10.6738C307.21 11.0999 307.35 11.7051 307.35 12.4893ZM309.616 15.6367C309.616 16.249 309.682 16.7074 309.815 17.0117C309.947 17.3125 310.164 17.4629 310.465 17.4629C310.766 17.4629 310.988 17.3143 311.131 17.0171C311.274 16.7163 311.346 16.2562 311.346 15.6367C311.346 15.0244 311.274 14.5715 311.131 14.2778C310.988 13.9806 310.766 13.832 310.465 13.832C310.164 13.832 309.947 13.9806 309.815 14.2778C309.682 14.5715 309.616 15.0244 309.616 15.6367ZM312.082 15.6367C312.082 16.4495 311.944 17.0654 311.668 17.4844C311.396 17.8997 310.995 18.1074 310.465 18.1074C309.956 18.1074 309.564 17.8944 309.289 17.4683C309.016 17.0422 308.88 16.4316 308.88 15.6367C308.88 14.8239 309.013 14.2116 309.278 13.7998C309.546 13.388 309.942 13.1821 310.465 13.1821C310.973 13.1821 311.369 13.3934 311.652 13.8159C311.938 14.2349 312.082 14.8418 312.082 15.6367ZM310.696 10.1475L306.34 18H305.55L309.906 10.1475H310.696Z" fill="#1D1D1D"/>
<path d="M7.34766 13.9985C7.34766 15.2948 6.99495 16.2866 6.28955 16.9741C5.58773 17.658 4.57617 18 3.25488 18H1.07959V10.1475H3.48584C4.70687 10.1475 5.65576 10.4858 6.33252 11.1626C7.00928 11.8394 7.34766 12.7847 7.34766 13.9985ZM6.38086 14.0308C6.38086 13.0067 6.12305 12.235 5.60742 11.7158C5.09538 11.1966 4.33268 10.937 3.31934 10.937H1.99268V17.2104H3.10449C4.19303 17.2104 5.01123 16.9437 5.55908 16.4102C6.10693 15.873 6.38086 15.0799 6.38086 14.0308ZM14.4814 18H10.104V10.1475H14.4814V10.9585H11.0171V13.4883H14.272V14.2939H11.0171V17.1836H14.4814V18ZM21.6582 15.9106C21.6582 16.6017 21.4076 17.1406 20.9062 17.5273C20.4049 17.9141 19.7246 18.1074 18.8652 18.1074C17.9342 18.1074 17.2181 17.9875 16.7168 17.7476V16.8667C17.0391 17.0028 17.39 17.1102 17.7695 17.189C18.1491 17.2677 18.5251 17.3071 18.8975 17.3071C19.5062 17.3071 19.9645 17.1925 20.2725 16.9634C20.5804 16.7306 20.7344 16.4084 20.7344 15.9966C20.7344 15.7244 20.6789 15.5024 20.5679 15.3306C20.4604 15.1551 20.2778 14.994 20.02 14.8472C19.7658 14.7004 19.3773 14.5339 18.8545 14.3477C18.124 14.0863 17.6012 13.7765 17.2861 13.4185C16.9746 13.0604 16.8188 12.5931 16.8188 12.0166C16.8188 11.4115 17.0462 10.9299 17.501 10.5718C17.9557 10.2137 18.5573 10.0347 19.3057 10.0347C20.0863 10.0347 20.8042 10.1779 21.4595 10.4644L21.1748 11.2593C20.5267 10.9871 19.8965 10.8511 19.2842 10.8511C18.8008 10.8511 18.423 10.9549 18.1509 11.1626C17.8787 11.3703 17.7427 11.6585 17.7427 12.0273C17.7427 12.2995 17.7928 12.5233 17.8931 12.6987C17.9933 12.8706 18.1616 13.0299 18.3979 13.1768C18.6379 13.32 19.0031 13.4793 19.4937 13.6548C20.3172 13.9484 20.883 14.2635 21.1909 14.6001C21.5024 14.9367 21.6582 15.3735 21.6582 15.9106ZM24.2642 18V10.1475H25.1772V18H24.2642ZM31.79 13.8857H34.4595V17.7046C34.0441 17.8371 33.6216 17.9373 33.1919 18.0054C32.7622 18.0734 32.2645 18.1074 31.6987 18.1074C30.5099 18.1074 29.5843 17.7547 28.9219 17.0493C28.2594 16.3403 27.9282 15.3485 27.9282 14.0737C27.9282 13.2573 28.0911 12.543 28.417 11.9307C28.7464 11.3148 29.2191 10.8457 29.835 10.5234C30.4508 10.1976 31.1724 10.0347 31.9995 10.0347C32.8374 10.0347 33.618 10.1886 34.3413 10.4966L33.9868 11.3022C33.2778 11.0015 32.5957 10.8511 31.9404 10.8511C30.9844 10.8511 30.2378 11.1357 29.7007 11.7051C29.1636 12.2744 28.895 13.064 28.895 14.0737C28.895 15.1336 29.1528 15.9375 29.6685 16.4854C30.1877 17.0332 30.9486 17.3071 31.9512 17.3071C32.4954 17.3071 33.0272 17.2445 33.5464 17.1191V14.7021H31.79V13.8857ZM43.4839 18H42.4419L38.1504 11.4097H38.1074C38.1647 12.1831 38.1934 12.8921 38.1934 13.5366V18H37.3501V10.1475H38.3813L42.6621 16.7109H42.7051C42.6979 16.6143 42.6818 16.3045 42.6567 15.7817C42.6317 15.2554 42.6227 14.8794 42.6299 14.6538V10.1475H43.4839V18Z" fill="#1D1D1D"/>
</g>
<defs>
<clipPath id="clip0_0_211">
<rect width="370" height="24" fill="white"/>
</clipPath>
</defs>
</svg>
