<svg width="370" height="24" viewBox="0 0 370 24" fill="none" xmlns="http://www.w3.org/2000/svg">
<g clip-path="url(#clip0_0_216)">
<rect width="370" height="2" fill="#F0F0F0"/>
<rect width="314" height="2" fill="#1D1D1D"/>
<path d="M7.34766 13.9985C7.34766 15.2948 6.99495 16.2866 6.28955 16.9741C5.58773 17.658 4.57617 18 3.25488 18H1.07959V10.1475H3.48584C4.70687 10.1475 5.65576 10.4858 6.33252 11.1626C7.00928 11.8394 7.34766 12.7847 7.34766 13.9985ZM6.38086 14.0308C6.38086 13.0067 6.12305 12.235 5.60742 11.7158C5.09538 11.1966 4.33268 10.937 3.31934 10.937H1.99268V17.2104H3.10449C4.19303 17.2104 5.01123 16.9437 5.55908 16.4102C6.10693 15.873 6.38086 15.0799 6.38086 14.0308ZM14.4814 18H10.104V10.1475H14.4814V10.9585H11.0171V13.4883H14.272V14.2939H11.0171V17.1836H14.4814V18ZM21.7119 10.1475H22.6948L19.8643 18H18.9619L16.1475 10.1475H17.1143L18.9189 15.2285C19.1266 15.8122 19.2913 16.3797 19.4131 16.9312C19.542 16.3511 19.7103 15.7728 19.918 15.1963L21.7119 10.1475ZM29.1572 18H24.7798V10.1475H29.1572V10.9585H25.6929V13.4883H28.9478V14.2939H25.6929V17.1836H29.1572V18ZM31.9028 18V10.1475H32.8159V17.1729H36.2803V18H31.9028ZM45.4336 14.063C45.4336 15.3198 45.1149 16.3081 44.4775 17.0278C43.8438 17.7476 42.9611 18.1074 41.8296 18.1074C40.673 18.1074 39.7796 17.7547 39.1494 17.0493C38.5228 16.3403 38.2095 15.3413 38.2095 14.0522C38.2095 12.7739 38.5246 11.7839 39.1548 11.082C39.785 10.3766 40.6802 10.0239 41.8403 10.0239C42.9683 10.0239 43.8491 10.382 44.4829 11.0981C45.1167 11.8143 45.4336 12.8026 45.4336 14.063ZM39.1763 14.063C39.1763 15.1265 39.4019 15.9339 39.853 16.4854C40.3078 17.0332 40.9666 17.3071 41.8296 17.3071C42.6997 17.3071 43.3568 17.0332 43.8008 16.4854C44.2448 15.9375 44.4668 15.13 44.4668 14.063C44.4668 13.0067 44.2448 12.2064 43.8008 11.6621C43.3604 11.1143 42.7069 10.8403 41.8403 10.8403C40.9702 10.8403 40.3078 11.116 39.853 11.6675C39.4019 12.2153 39.1763 13.0138 39.1763 14.063ZM53.1689 12.4355C53.1689 13.2305 52.8968 13.8428 52.3525 14.2725C51.8118 14.6986 51.0366 14.9116 50.0269 14.9116H49.103V18H48.1899V10.1475H50.2256C52.1878 10.1475 53.1689 10.9102 53.1689 12.4355ZM49.103 14.1274H49.9248C50.734 14.1274 51.3195 13.9967 51.6812 13.7354C52.0428 13.474 52.2236 13.055 52.2236 12.4785C52.2236 11.9593 52.0535 11.5726 51.7134 11.3184C51.3732 11.0641 50.8433 10.937 50.1235 10.937H49.103V14.1274ZM59.293 18L56.6289 11.0391H56.5859C56.6361 11.5905 56.6611 12.2458 56.6611 13.0049V18H55.8179V10.1475H57.1929L59.6797 16.625H59.7227L62.231 10.1475H63.5952V18H62.6821V12.9404C62.6821 12.3604 62.7072 11.7301 62.7573 11.0498H62.7144L60.0288 18H59.293ZM71.1318 18H66.7544V10.1475H71.1318V10.9585H67.6675V13.4883H70.9224V14.2939H67.6675V17.1836H71.1318V18ZM80.0112 18H78.9692L74.6777 11.4097H74.6348C74.6921 12.1831 74.7207 12.8921 74.7207 13.5366V18H73.8774V10.1475H74.9087L79.1895 16.7109H79.2324C79.2253 16.6143 79.2091 16.3045 79.1841 15.7817C79.159 15.2554 79.1501 14.8794 79.1572 14.6538V10.1475H80.0112V18ZM85.5874 18H84.6743V10.9585H82.1875V10.1475H88.0742V10.9585H85.5874V18Z" fill="#1D1D1D"/>
<path d="M310.137 10.0347C310.853 10.0347 311.42 10.2012 311.839 10.5342C312.258 10.8672 312.468 11.3273 312.468 11.9146C312.468 12.3013 312.348 12.654 312.108 12.9727C311.868 13.2913 311.485 13.5814 310.958 13.8428C311.596 14.1471 312.049 14.4676 312.317 14.8042C312.586 15.1372 312.72 15.5239 312.72 15.9644C312.72 16.616 312.493 17.137 312.038 17.5273C311.583 17.9141 310.96 18.1074 310.169 18.1074C309.331 18.1074 308.687 17.9248 308.235 17.5596C307.784 17.1908 307.559 16.6698 307.559 15.9966C307.559 15.0978 308.106 14.3978 309.202 13.8965C308.708 13.6172 308.354 13.3164 308.139 12.9941C307.924 12.6683 307.816 12.3049 307.816 11.9038C307.816 11.3345 308.026 10.8815 308.445 10.5449C308.867 10.2048 309.431 10.0347 310.137 10.0347ZM308.439 16.0181C308.439 16.4478 308.588 16.7826 308.885 17.0225C309.186 17.2624 309.607 17.3823 310.147 17.3823C310.681 17.3823 311.096 17.257 311.394 17.0063C311.691 16.7557 311.839 16.4119 311.839 15.9751C311.839 15.6278 311.7 15.3198 311.42 15.0513C311.141 14.7791 310.654 14.516 309.959 14.2617C309.426 14.4909 309.039 14.7451 308.799 15.0244C308.559 15.3001 308.439 15.6313 308.439 16.0181ZM310.126 10.7598C309.678 10.7598 309.327 10.8672 309.073 11.082C308.819 11.2969 308.692 11.5833 308.692 11.9414C308.692 12.2708 308.798 12.5537 309.009 12.79C309.22 13.0264 309.61 13.2627 310.18 13.499C310.692 13.2842 311.053 13.0532 311.265 12.8062C311.479 12.5591 311.587 12.2708 311.587 11.9414C311.587 11.5798 311.456 11.2933 311.195 11.082C310.937 10.8672 310.581 10.7598 310.126 10.7598ZM317.287 13.2036C318.114 13.2036 318.764 13.4095 319.236 13.8213C319.713 14.2295 319.951 14.7899 319.951 15.5024C319.951 16.3153 319.691 16.9526 319.172 17.4146C318.656 17.8765 317.944 18.1074 317.034 18.1074C316.15 18.1074 315.475 17.966 315.009 17.6831V16.8237C315.26 16.9849 315.571 17.112 315.944 17.2051C316.316 17.2946 316.683 17.3394 317.045 17.3394C317.675 17.3394 318.164 17.1908 318.511 16.8936C318.862 16.5964 319.038 16.1667 319.038 15.6045C319.038 14.5088 318.366 13.9609 317.023 13.9609C316.683 13.9609 316.229 14.0129 315.659 14.1167L315.197 13.8213L315.493 10.1475H319.397V10.9692H316.255L316.057 13.3271C316.468 13.2448 316.878 13.2036 317.287 13.2036ZM322.89 12.4893C322.89 13.098 322.956 13.5545 323.088 13.8589C323.221 14.1632 323.436 14.3154 323.733 14.3154C324.32 14.3154 324.614 13.7067 324.614 12.4893C324.614 11.279 324.32 10.6738 323.733 10.6738C323.436 10.6738 323.221 10.8242 323.088 11.125C322.956 11.4258 322.89 11.8805 322.89 12.4893ZM325.35 12.4893C325.35 13.3057 325.212 13.9233 324.936 14.3423C324.664 14.7576 324.263 14.9653 323.733 14.9653C323.232 14.9653 322.841 14.7523 322.562 14.3262C322.286 13.9001 322.148 13.2878 322.148 12.4893C322.148 11.6764 322.281 11.0641 322.546 10.6523C322.814 10.2406 323.21 10.0347 323.733 10.0347C324.252 10.0347 324.651 10.2477 324.931 10.6738C325.21 11.0999 325.35 11.7051 325.35 12.4893ZM327.616 15.6367C327.616 16.249 327.682 16.7074 327.815 17.0117C327.947 17.3125 328.164 17.4629 328.465 17.4629C328.766 17.4629 328.988 17.3143 329.131 17.0171C329.274 16.7163 329.346 16.2562 329.346 15.6367C329.346 15.0244 329.274 14.5715 329.131 14.2778C328.988 13.9806 328.766 13.832 328.465 13.832C328.164 13.832 327.947 13.9806 327.815 14.2778C327.682 14.5715 327.616 15.0244 327.616 15.6367ZM330.082 15.6367C330.082 16.4495 329.944 17.0654 329.668 17.4844C329.396 17.8997 328.995 18.1074 328.465 18.1074C327.956 18.1074 327.564 17.8944 327.289 17.4683C327.016 17.0422 326.88 16.4316 326.88 15.6367C326.88 14.8239 327.013 14.2116 327.278 13.7998C327.546 13.388 327.942 13.1821 328.465 13.1821C328.973 13.1821 329.369 13.3934 329.652 13.8159C329.938 14.2349 330.082 14.8418 330.082 15.6367ZM328.696 10.1475L324.34 18H323.55L327.906 10.1475H328.696Z" fill="#1D1D1D"/>
</g>
<defs>
<clipPath id="clip0_0_216">
<rect width="370" height="24" fill="white"/>
</clipPath>
</defs>
</svg>
